<?xml version="1.0" encoding="ISO-8859-1" standalone="no"?>
<!DOCTYPE svg PUBLIC "-//W3C//DTD SVG 1.1//EN" "http://www.w3.org/Graphics/SVG/1.1/DTD/svg11.dtd">
<svg version="1.1" baseProfile="full" id="body" width="8in" height="8in" viewBox="0 0 1 1" preserveAspectRatio="none" xmlns="http://www.w3.org/2000/svg" xmlns:xlink="http://www.w3.org/1999/xlink" xmlns:ev="http://www.w3.org/2001/xml-events">
<title>SVG drawing</title>
<desc>This was produced by version 4.4 of GNU libplot, a free library for exporting 2-D vector graphics.</desc>
<rect id="background" x="0" y="0" width="1" height="1" stroke="none" fill="white"/>
<g id="content" transform="translate(0,1) scale(1,-1) scale(0.00024414) " xml:space="preserve" stroke="black" stroke-linecap="butt" stroke-linejoin="miter" stroke-miterlimit="10.433" stroke-dasharray="none" stroke-dashoffset="0" stroke-opacity="1" fill="none" fill-rule="evenodd" fill-opacity="1" font-style="normal" font-variant="normal" font-weight="normal" font-stretch="normal" font-size-adjust="none" letter-spacing="normal" word-spacing="normal" text-anchor="start">
<rect x="819.2" y="819.2" width="2457.6" height="2457.6" stroke-width="4.8188" />
<text transform="translate(783.33,662.21) scale(1,-1) scale(6.4512) " font-family="Helvetica,sans-serif" font-size="20px" stroke="none" fill="black" >0</text>
<line x1="819.2" y1="3276.8" x2="819.2" y2="3227.6" stroke-width="4.8188" />
<line x1="819.2" y1="819.2" x2="819.2" y2="868.35" stroke-width="4.8188" />
<text transform="translate(1274.9,662.21) scale(1,-1) scale(6.4512) " font-family="Helvetica,sans-serif" font-size="20px" stroke="none" fill="black" >2</text>
<line x1="1310.7" y1="3276.8" x2="1310.7" y2="3227.6" stroke-width="4.8188" />
<line x1="1310.7" y1="819.2" x2="1310.7" y2="868.35" stroke-width="4.8188" />
<text transform="translate(1766.4,662.21) scale(1,-1) scale(6.4512) " font-family="Helvetica,sans-serif" font-size="20px" stroke="none" fill="black" >4</text>
<line x1="1802.2" y1="3276.8" x2="1802.2" y2="3227.6" stroke-width="4.8188" />
<line x1="1802.2" y1="819.2" x2="1802.2" y2="868.35" stroke-width="4.8188" />
<text transform="translate(2257.9,662.21) scale(1,-1) scale(6.4512) " font-family="Helvetica,sans-serif" font-size="20px" stroke="none" fill="black" >6</text>
<line x1="2293.8" y1="3276.8" x2="2293.8" y2="3227.6" stroke-width="4.8188" />
<line x1="2293.8" y1="819.2" x2="2293.8" y2="868.35" stroke-width="4.8188" />
<text transform="translate(2749.4,662.21) scale(1,-1) scale(6.4512) " font-family="Helvetica,sans-serif" font-size="20px" stroke="none" fill="black" >8</text>
<line x1="2785.3" y1="3276.8" x2="2785.3" y2="3227.6" stroke-width="4.8188" />
<line x1="2785.3" y1="819.2" x2="2785.3" y2="868.35" stroke-width="4.8188" />
<text transform="translate(3205.1,662.21) scale(1,-1) scale(6.4512) " font-family="Helvetica,sans-serif" font-size="20px" stroke="none" fill="black" >10</text>
<line x1="3276.8" y1="3276.8" x2="3276.8" y2="3227.6" stroke-width="4.8188" />
<line x1="3276.8" y1="819.2" x2="3276.8" y2="868.35" stroke-width="4.8188" />
<line x1="819.2" y1="3276.8" x2="819.2" y2="3257.1" stroke-width="4.8188" />
<line x1="819.2" y1="819.2" x2="819.2" y2="838.86" stroke-width="4.8188" />
<line x1="1065" y1="3276.8" x2="1065" y2="3257.1" stroke-width="4.8188" />
<line x1="1065" y1="819.2" x2="1065" y2="838.86" stroke-width="4.8188" />
<line x1="1310.7" y1="3276.8" x2="1310.7" y2="3257.1" stroke-width="4.8188" />
<line x1="1310.7" y1="819.2" x2="1310.7" y2="838.86" stroke-width="4.8188" />
<line x1="1556.5" y1="3276.8" x2="1556.5" y2="3257.1" stroke-width="4.8188" />
<line x1="1556.5" y1="819.2" x2="1556.5" y2="838.86" stroke-width="4.8188" />
<line x1="1802.2" y1="3276.8" x2="1802.2" y2="3257.1" stroke-width="4.8188" />
<line x1="1802.2" y1="819.2" x2="1802.2" y2="838.86" stroke-width="4.8188" />
<line x1="2048" y1="3276.8" x2="2048" y2="3257.1" stroke-width="4.8188" />
<line x1="2048" y1="819.2" x2="2048" y2="838.86" stroke-width="4.8188" />
<line x1="2293.8" y1="3276.8" x2="2293.8" y2="3257.1" stroke-width="4.8188" />
<line x1="2293.8" y1="819.2" x2="2293.8" y2="838.86" stroke-width="4.8188" />
<line x1="2539.5" y1="3276.8" x2="2539.5" y2="3257.1" stroke-width="4.8188" />
<line x1="2539.5" y1="819.2" x2="2539.5" y2="838.86" stroke-width="4.8188" />
<line x1="2785.3" y1="3276.8" x2="2785.3" y2="3257.1" stroke-width="4.8188" />
<line x1="2785.3" y1="819.2" x2="2785.3" y2="838.86" stroke-width="4.8188" />
<line x1="3031" y1="3276.8" x2="3031" y2="3257.1" stroke-width="4.8188" />
<line x1="3031" y1="819.2" x2="3031" y2="838.86" stroke-width="4.8188" />
<line x1="3276.8" y1="3276.8" x2="3276.8" y2="3257.1" stroke-width="4.8188" />
<line x1="3276.8" y1="819.2" x2="3276.8" y2="838.86" stroke-width="4.8188" />
<text transform="translate(527.64,773.65) scale(1,-1) scale(6.4512) " font-family="Helvetica,sans-serif" font-size="20px" stroke="none" fill="black" >-0.4</text>
<line x1="3276.8" y1="819.2" x2="3227.6" y2="819.2" stroke-width="4.8188" />
<line x1="819.2" y1="819.2" x2="868.35" y2="819.2" stroke-width="4.8188" />
<text transform="translate(527.64,1265.2) scale(1,-1) scale(6.4512) " font-family="Helvetica,sans-serif" font-size="20px" stroke="none" fill="black" >-0.2</text>
<line x1="3276.8" y1="1310.7" x2="3227.6" y2="1310.7" stroke-width="4.8188" />
<line x1="819.2" y1="1310.7" x2="868.35" y2="1310.7" stroke-width="4.8188" />
<text transform="translate(602.99,1756.7) scale(1,-1) scale(6.4512) " font-family="Helvetica,sans-serif" font-size="20px" stroke="none" fill="black" >0.0</text>
<line x1="3276.8" y1="1802.2" x2="3227.6" y2="1802.2" stroke-width="4.8188" />
<line x1="819.2" y1="1802.2" x2="868.35" y2="1802.2" stroke-width="4.8188" />
<text transform="translate(602.99,2248.2) scale(1,-1) scale(6.4512) " font-family="Helvetica,sans-serif" font-size="20px" stroke="none" fill="black" >0.2</text>
<line x1="3276.8" y1="2293.8" x2="3227.6" y2="2293.8" stroke-width="4.8188" />
<line x1="819.2" y1="2293.8" x2="868.35" y2="2293.8" stroke-width="4.8188" />
<text transform="translate(602.99,2739.7) scale(1,-1) scale(6.4512) " font-family="Helvetica,sans-serif" font-size="20px" stroke="none" fill="black" >0.4</text>
<line x1="3276.8" y1="2785.3" x2="3227.6" y2="2785.3" stroke-width="4.8188" />
<line x1="819.2" y1="2785.3" x2="868.35" y2="2785.3" stroke-width="4.8188" />
<text transform="translate(602.99,3231.3) scale(1,-1) scale(6.4512) " font-family="Helvetica,sans-serif" font-size="20px" stroke="none" fill="black" >0.6</text>
<line x1="3276.8" y1="3276.8" x2="3227.6" y2="3276.8" stroke-width="4.8188" />
<line x1="819.2" y1="3276.8" x2="868.35" y2="3276.8" stroke-width="4.8188" />
<line x1="3276.8" y1="819.2" x2="3257.1" y2="819.2" stroke-width="4.8188" />
<line x1="819.2" y1="819.2" x2="838.86" y2="819.2" stroke-width="4.8188" />
<line x1="3276.8" y1="1065" x2="3257.1" y2="1065" stroke-width="4.8188" />
<line x1="819.2" y1="1065" x2="838.86" y2="1065" stroke-width="4.8188" />
<line x1="3276.8" y1="1310.7" x2="3257.1" y2="1310.7" stroke-width="4.8188" />
<line x1="819.2" y1="1310.7" x2="838.86" y2="1310.7" stroke-width="4.8188" />
<line x1="3276.8" y1="1556.5" x2="3257.1" y2="1556.5" stroke-width="4.8188" />
<line x1="819.2" y1="1556.5" x2="838.86" y2="1556.5" stroke-width="4.8188" />
<line x1="3276.8" y1="1802.2" x2="3257.1" y2="1802.2" stroke-width="4.8188" />
<line x1="819.2" y1="1802.2" x2="838.86" y2="1802.2" stroke-width="4.8188" />
<line x1="3276.8" y1="2048" x2="3257.1" y2="2048" stroke-width="4.8188" />
<line x1="819.2" y1="2048" x2="838.86" y2="2048" stroke-width="4.8188" />
<line x1="3276.8" y1="2293.8" x2="3257.1" y2="2293.8" stroke-width="4.8188" />
<line x1="819.2" y1="2293.8" x2="838.86" y2="2293.8" stroke-width="4.8188" />
<line x1="3276.8" y1="2539.5" x2="3257.1" y2="2539.5" stroke-width="4.8188" />
<line x1="819.2" y1="2539.5" x2="838.86" y2="2539.5" stroke-width="4.8188" />
<line x1="3276.8" y1="2785.3" x2="3257.1" y2="2785.3" stroke-width="4.8188" />
<line x1="819.2" y1="2785.3" x2="838.86" y2="2785.3" stroke-width="4.8188" />
<line x1="3276.8" y1="3031" x2="3257.1" y2="3031" stroke-width="4.8188" />
<line x1="819.2" y1="3031" x2="838.86" y2="3031" stroke-width="4.8188" />
<line x1="3276.8" y1="3276.8" x2="3257.1" y2="3276.8" stroke-width="4.8188" />
<line x1="819.2" y1="3276.8" x2="838.86" y2="3276.8" stroke-width="4.8188" />
<line x1="819.2" y1="1802.2" x2="3276.8" y2="1802.2" stroke-width="4.8188" stroke-dasharray="4.8188, 14.456"/>
<polyline points="819.2,1802.2 831.49,1863.7 843.78,1925 856.06,1986 868.35,2046.8 880.64,2107 892.93,2166.7 905.22,2225.8 917.5,2284 929.79,2341.3 942.08,2397.6 954.37,2452.8 966.66,2506.8 978.94,2559.5 991.23,2610.8 1003.5,2660.5 1015.8,2708.7 1028.1,2755.2 1040.4,2799.9 1052.7,2842.8 1065,2883.7 1077.2,2922.7 1089.5,2959.5 1101.8,2994.3 1114.1,3026.8 1126.4,3057.1 1138.7,3085.2 1151,3110.8 1163.3,3134.1 1175.6,3155 1187.8,3173.4 1200.1,3189.4 1212.4,3202.8 1224.7,3213.7 1237,3222.2 1249.3,3228 1261.6,3231.4 1273.9,3232.2 1286.1,3230.5 1298.4,3226.3 1310.7,3219.6 1323,3210.5 1335.3,3198.9 1347.6,3184.9 1359.9,3168.6 1372.2,3149.9 1384.4,3129 1396.7,3105.9 1409,3080.6 1421.3,3053.3 1433.6,3023.9 1445.9,2992.6 1458.2,2959.3 1470.5,2924.3 1482.8,2887.5 1495,2849.1 1507.3,2809.1 1519.6,2767.7 1531.9,2724.9 1544.2,2680.8 1556.5,2635.5 1568.8,2589.1 1581.1,2541.8 1593.3,2493.5 1605.6,2444.5 1617.9,2394.8 1630.2,2344.5 1642.5,2293.8 1654.8,2242.7 1667.1,2191.4 1679.4,2139.9 1691.6,2088.3 1703.9,2036.9 1716.2,1985.6 1728.5,1934.5 1740.8,1883.9 1753.1,1833.7 1765.4,1784.2 1777.7,1735.3 1790,1687.2 1802.2,1639.9 1814.5,1593.7 1826.8,1548.4 1839.1,1504.4 1851.4,1461.5 1863.7,1420 1876,1379.8 1888.3,1341.1 1900.5,1303.9 1912.8,1268.3 1925.1,1234.4 1937.4,1202.2 1949.7,1171.7 1962,1143.1 1974.3,1116.4 1986.6,1091.5 1998.8,1068.6 2011.1,1047.7 2023.4,1028.8 2035.7,1012 2048,997.18 2060.3,984.45 2072.6,973.79 2084.9,965.22 2097.2,958.74 2109.4,954.33 2121.7,952.01 2134,951.74 2146.3,953.52 2158.6,957.32 2170.9,963.12 2183.2,970.89 2195.5,980.58 2207.7,992.17 2220,1005.6 2232.3,1020.9 2244.6,1037.9 2256.9,1056.6 2269.2,1076.9 2281.5,1098.8 2293.8,1122.3 2306,1147.2 2318.3,1173.4 2330.6,1201 2342.9,1229.8 2355.2,1259.8 2367.5,1290.8 2379.8,1322.9 2392.1,1355.8 2404.4,1389.6 2416.6,1424.2 2428.9,1459.3 2441.2,1495.1 2453.5,1531.3 2465.8,1567.9 2478.1,1604.8 2490.4,1642 2502.7,1679.2 2514.9,1716.5 2527.2,1753.7 2539.5,1790.7 2551.8,1827.6 2564.1,1864.1 2576.4,1900.2 2588.7,1935.8 2601,1970.8 2613.2,2005.2 2625.5,2038.8 2637.8,2071.7 2650.1,2103.6 2662.4,2134.6 2674.7,2164.6 2687,2193.5 2699.3,2221.3 2711.6,2247.8 2723.8,2273.1 2736.1,2297.1 2748.4,2319.7 2760.7,2340.9 2773,2360.6 2785.3,2378.9 2797.6,2395.6 2809.9,2410.8 2822.1,2424.3 2834.4,2436.3 2846.7,2446.6 2859,2455.3 2871.3,2462.4 2883.6,2467.7 2895.9,2471.4 2908.2,2473.5 2920.4,2473.8 2932.7,2472.6 2945,2469.6 2957.3,2465.1 2969.6,2459 2981.9,2451.2 2994.2,2441.9 3006.5,2431.1 3018.8,2418.9 3031,2405.1 3043.3,2390 3055.6,2373.5 3067.9,2355.6 3080.2,2336.5 3092.5,2316.2 3104.8,2294.8 3117.1,2272.2 3129.3,2248.6 3141.6,2224 3153.9,2198.6 3166.2,2172.2 3178.5,2145.1 3190.8,2117.3 3203.1,2088.9 3215.4,2059.9 3227.6,2030.4 3239.9,2000.5 3252.2,1970.3 3264.5,1939.8 3276.8,1909.1 " stroke-width="4.8188" />
</g>
</svg>
